<svg xmlns="http://www.w3.org/2000/svg" width="182.366" height="54.659" viewBox="0 0 182.366 54.659"><g transform="translate(-375 -42.2)"><g transform="translate(375 42.2)"><g transform="translate(86.382 3.173)"><path d="M468.69,24.38h-6.573l.017-7.713-4.995-.011-.018,7.724h-3.643v4.994h15.21Z" transform="translate(-453.479 -16.656)" fill="#fff"/><path d="M484.024,114.057a9.333,9.333,0,0,1-3.339.417,3.294,3.294,0,0,1-3.292-3.286l.02-8.743h-4.994l-.02,8.737a8.3,8.3,0,0,0,8.286,8.286,14.85,14.85,0,0,0,4.212-.461Z" transform="translate(-468.795 -86.102)" fill="#fff"/></g><path d="M321.956,58.625a8.173,8.173,0,1,1-8.173,8.173,8.182,8.182,0,0,1,8.173-8.173m0-4.994A13.167,13.167,0,1,0,335.124,66.8a13.167,13.167,0,0,0-13.167-13.167Z" transform="translate(-249.968 -43.415)" fill="#fff"/><path d="M181.026,69.3a13.167,13.167,0,1,0-1.6,4.21l-4.834-1.759A8.166,8.166,0,0,1,160.319,69.3h15.562ZM168.1,58.625a8.186,8.186,0,0,1,7.781,5.676H160.319A8.186,8.186,0,0,1,168.1,58.625Z" transform="translate(-125.42 -43.415)" fill="#fff"/><path d="M570.165,69.3a13.166,13.166,0,1,0-1.611,4.229l-4.836-1.76A8.167,8.167,0,0,1,549.457,69.3h15.562ZM557.238,58.625a8.186,8.186,0,0,1,7.781,5.676H549.457A8.187,8.187,0,0,1,557.238,58.625Z" transform="translate(-440.432 -43.415)" fill="#fff"/><path d="M848.616,71.826a8.173,8.173,0,1,1,0-10.055l4.846-1.764a13.167,13.167,0,1,0,0,13.582Z" transform="translate(-671.095 -43.415)" fill="#fff"/><circle cx="3.632" cy="3.632" r="3.632" transform="translate(148.354 0)" fill="#fff"/><rect width="4.994" height="24.972" transform="translate(149.49 10.897)" fill="#fff"/><path d="M704.6,60.062V59.1l0,0V57.206H699.6V82.178H704.6V68.443h.007a6.257,6.257,0,0,1,7.655-6.1V57.286C706.907,56.667,704.6,60.062,704.6,60.062Z" transform="translate(-566.337 -46.309)" fill="#fff"/><path d="M24.857,76.654A13.167,13.167,0,1,1,0,82.713H4.994A8.173,8.173,0,1,0,20.723,79.6,16.872,16.872,0,0,0,24.857,76.654Zm-.78-19.425a13.152,13.152,0,1,1-6.439-5.012v0a8.155,8.155,0,0,0,7.976-1.293l3.439,3.638A13.147,13.147,0,0,1,24.076,57.229ZM21.34,64.6a8.173,8.173,0,1,0-8.173,8.173A8.182,8.182,0,0,0,21.34,64.6Z" transform="translate(0 -41.221)" fill="#fff"/></g></g></svg>